<svg width="101" height="100" viewBox="0 0 101 100" fill="none" xmlns="http://www.w3.org/2000/svg">
<path d="M1.21094 38.9844C0.429687 42.5391 0 46.2109 0 50C0 67.9492 9.45312 83.6914 23.6719 92.5L94.2969 73.2227C97.9492 66.2891 100.02 58.3789 100.02 50C100 22.3828 77.6172 0 50 0C30.4297 0 13.4961 11.25 5.27344 27.6172L1.21094 38.9844Z" fill="#63E2F7"/>
<path d="M94.2773 2.71484C94.2773 1.23047 93.0469 0 91.5625 0H26.3867C24.9023 0 23.6719 1.23047 23.6719 2.71484V19.8047L25.9375 18.7695C27.5195 18.0469 29.3555 18.0469 30.9375 18.7695L59.1797 31.6406C61.4062 32.6562 61.4062 35.8008 59.1797 36.8164L48.5547 41.6602V53.457C48.5547 54.7852 46.4258 56.1914 42.8711 57.2266C37.6562 58.75 30.332 59.2773 23.6523 58.8086V92.5195C31.3086 97.2461 40.332 100 50 100C69.2383 100 85.918 89.1406 94.2773 73.2227V2.71484Z" fill="white"/>
<path d="M53.6328 0H26.3867C24.9023 0 23.6719 1.23047 23.6719 2.71484V19.8047L25.9375 18.7695C27.5195 18.0469 29.3555 18.0469 30.9375 18.7695L56.9336 30.625C55.8008 27.4414 56.3281 24.1602 56.7578 22.4219C56.9336 21.7383 56.7188 20.9961 56.1719 20.5273C54.9219 19.4141 55 17.9492 55.2734 16.9336C55.4688 16.2109 55.2344 15.4297 54.6484 14.9414C48.7891 10 52.0898 3.04688 53.3594 0.859375C53.5352 0.566406 53.6133 0.292969 53.6328 0Z" fill="#EFEEEF"/>
<path d="M61.9922 36.3867C61.4648 36.0937 60.9961 35.7812 60.5664 35.4688C60.293 36.0352 59.8437 36.5234 59.1797 36.8164L48.5547 41.6602V53.457C48.5547 54.7852 46.4258 56.1914 42.8711 57.2266C37.6562 58.75 30.332 59.2773 23.6523 58.8086V92.5195C31.3086 97.2461 40.332 100 50 100C51.0156 100 52.0508 99.9609 53.0469 99.9023C47.9492 95.957 47.832 90.4102 47.832 90.4102V77.6172C47.832 74.4727 49.1797 71.4453 51.6016 69.4336C59.043 63.2617 57.4805 53.1055 57.4805 47.5781C57.4805 43.3008 60 41.8164 61.6211 41.2891C62.4219 41.0352 62.9883 40.293 62.9883 39.4336V38.125C63.0273 37.3828 62.6172 36.7383 61.9922 36.3867Z" fill="#EFEEEF"/>
<path d="M73.3204 25.3125C64.6095 19.6484 53.3204 19.6484 44.6095 25.3125C43.3399 26.1328 41.6212 25.7812 40.8009 24.5117C39.9806 23.2422 40.3321 21.5234 41.6016 20.7031C52.129 13.8477 65.7813 13.8477 76.3087 20.7031C77.5782 21.5234 77.9493 23.2422 77.1094 24.5117C76.3087 25.7812 74.6095 26.1523 73.3204 25.3125Z" fill="#FB4444"/>
<path d="M44.6288 25.3125C48.3202 22.9102 52.4609 21.543 56.6796 21.1719C56.5624 20.918 56.4062 20.6836 56.1913 20.4883C54.9413 19.375 55.0195 17.9102 55.2929 16.8945C55.3905 16.5234 55.371 16.1328 55.2538 15.7812C50.4882 16.3477 45.8007 17.9688 41.621 20.7031C40.3515 21.5234 39.9804 23.2422 40.8202 24.5117C41.6405 25.7813 43.3398 26.1523 44.6288 25.3125Z" fill="#FC3030"/>
<path d="M69.2383 40.9961H63.0273C61.8945 40.9961 60.9961 40.0781 60.9961 38.9648C60.9961 37.832 61.9141 36.9336 63.0273 36.9336H69.2383C70.3711 36.9336 71.2695 37.8516 71.2695 38.9648C71.2695 40.0781 70.3516 40.9961 69.2383 40.9961Z" fill="#FFDA00"/>
<path d="M83.7891 47.5586H53.0859C52.2461 47.5586 51.5625 46.875 51.5625 46.0352C51.5625 45.1953 52.2461 44.5117 53.0859 44.5117H83.7891C84.6289 44.5117 85.3125 45.1953 85.3125 46.0352C85.3125 46.875 84.6289 47.5586 83.7891 47.5586Z" fill="#9799A6"/>
<path d="M83.7891 53.6133H53.0859C52.2461 53.6133 51.5625 52.9297 51.5625 52.0898C51.5625 51.25 52.2461 50.5664 53.0859 50.5664H83.7891C84.6289 50.5664 85.3125 51.25 85.3125 52.0898C85.3125 52.9297 84.6289 53.6133 83.7891 53.6133Z" fill="#9799A6"/>
<path d="M83.7891 59.6875H50.8398C50 59.6875 49.3164 59.0039 49.3164 58.1641C49.3164 57.3242 50 56.6406 50.8398 56.6406H83.7891C84.6289 56.6406 85.3125 57.3242 85.3125 58.1641C85.3125 59.0039 84.6289 59.6875 83.7891 59.6875Z" fill="#9799A6"/>
<path d="M83.789 65.7422H34.1797C33.3398 65.7422 32.6562 65.0586 32.6562 64.2187C32.6562 63.3789 33.3398 62.6953 34.1797 62.6953H83.789C84.6289 62.6953 85.3125 63.3789 85.3125 64.2187C85.3125 65.0586 84.6289 65.7422 83.789 65.7422Z" fill="#9799A6"/>
<path d="M83.789 71.7969H34.1797C33.3398 71.7969 32.6562 71.1133 32.6562 70.2734C32.6562 69.4336 33.3398 68.75 34.1797 68.75H83.789C84.6289 68.75 85.3125 69.4336 85.3125 70.2734C85.3125 71.1133 84.6289 71.7969 83.789 71.7969Z" fill="#9799A6"/>
<path d="M80.8398 80.4297H76.5039C75.6641 80.4297 74.9805 79.7461 74.9805 78.9062C74.9805 78.0664 75.6641 77.3828 76.5039 77.3828H80.8398C81.6797 77.3828 82.3633 78.0664 82.3633 78.9062C82.3633 79.7461 81.6797 80.4297 80.8398 80.4297Z" fill="#9799A6"/>
<path d="M83.7891 83.8477C83.6523 83.8477 83.6523 83.8477 83.4375 83.6914C83.0664 83.4375 82.4414 83.0273 81.3672 83.0273C80.293 83.0273 79.668 83.4375 79.2969 83.6914C79.082 83.8477 79.082 83.8477 78.9453 83.8477C78.8086 83.8477 78.8086 83.8477 78.5937 83.6914C78.2227 83.4375 77.5977 83.0273 76.5234 83.0273C75.6836 83.0273 75 83.7109 75 84.5508C75 85.3906 75.6836 86.0742 76.5234 86.0742C76.6602 86.0742 76.6602 86.0742 76.875 86.2305C77.2461 86.4844 77.8711 86.8945 78.9453 86.8945C80.0195 86.8945 80.6445 86.4844 81.0156 86.2305C81.2305 86.0742 81.2305 86.0742 81.3672 86.0742C81.5039 86.0742 81.5039 86.0742 81.7188 86.2305C82.0898 86.4844 82.6953 86.8945 83.75 86.8945C84.2773 86.4062 84.8047 85.8984 85.3125 85.3906V85.3711C85.3125 84.5313 84.6289 83.8477 83.7891 83.8477Z" fill="#9799A6"/>
<path d="M59.668 80.4297H55.332C54.4922 80.4297 53.8086 79.7461 53.8086 78.9062C53.8086 78.0664 54.4922 77.3828 55.332 77.3828H59.668C60.5078 77.3828 61.1914 78.0664 61.1914 78.9062C61.2109 79.7461 60.5078 80.4297 59.668 80.4297Z" fill="#9799A6"/>
<path d="M62.6172 86.8945C61.543 86.8945 60.918 86.4844 60.5469 86.2305C60.332 86.0742 60.332 86.0742 60.1953 86.0742C60.0586 86.0742 60.0586 86.0742 59.8437 86.2305C59.4727 86.4844 58.8477 86.8945 57.7734 86.8945C56.6992 86.8945 56.0742 86.4844 55.7031 86.2305C55.4883 86.0742 55.4883 86.0742 55.3516 86.0742C54.5117 86.0742 53.8281 85.3906 53.8281 84.5508C53.8281 83.7109 54.5117 83.0273 55.3516 83.0273C56.4258 83.0273 57.0508 83.4375 57.4219 83.6914C57.6367 83.8477 57.6367 83.8477 57.7734 83.8477C57.9102 83.8477 57.9102 83.8477 58.125 83.6914C58.4961 83.4375 59.1211 83.0273 60.1953 83.0273C61.2695 83.0273 61.8945 83.4375 62.2656 83.6914C62.4805 83.8477 62.4805 83.8477 62.6172 83.8477C63.457 83.8477 64.1406 84.5313 64.1406 85.3711C64.1406 86.2109 63.457 86.8945 62.6172 86.8945Z" fill="#9799A6"/>
<path d="M38.4961 80.4297H34.1797C33.3398 80.4297 32.6562 79.7461 32.6562 78.9062C32.6562 78.0664 33.3398 77.3828 34.1797 77.3828H38.5156C39.3555 77.3828 40.0391 78.0664 40.0391 78.9062C40.0391 79.7461 39.3555 80.4297 38.4961 80.4297Z" fill="#9799A6"/>
<path d="M41.4453 86.8945C40.3711 86.8945 39.7461 86.4844 39.375 86.2305C39.1602 86.0742 39.1602 86.0742 39.0234 86.0742C38.8867 86.0742 38.8867 86.0742 38.6719 86.2305C38.3008 86.4844 37.6758 86.8945 36.6016 86.8945C35.5273 86.8945 34.9023 86.4844 34.5313 86.2305C34.3164 86.0742 34.3164 86.0742 34.1797 86.0742C33.3398 86.0742 32.6562 85.3906 32.6562 84.5508C32.6562 83.7109 33.3398 83.0273 34.1797 83.0273C35.2539 83.0273 35.8789 83.4375 36.25 83.6914C36.4648 83.8477 36.4648 83.8477 36.6016 83.8477C36.7383 83.8477 36.7383 83.8477 36.9531 83.6914C37.3242 83.4375 37.9492 83.0273 39.0234 83.0273C40.0977 83.0273 40.7227 83.4375 41.0937 83.6914C41.3086 83.8477 41.3086 83.8477 41.4453 83.8477C42.2852 83.8477 42.9688 84.5313 42.9688 85.3711C42.9688 86.2109 42.2852 86.8945 41.4453 86.8945Z" fill="#9799A6"/>
<path d="M28.4375 59.4727C39.8392 59.4727 49.082 56.7794 49.082 53.457C49.082 50.1347 39.8392 47.4414 28.4375 47.4414C17.0358 47.4414 7.79297 50.1347 7.79297 53.457C7.79297 56.7794 17.0358 59.4727 28.4375 59.4727Z" fill="#043C62"/>
<path d="M28.4375 47.4414C28.0859 47.4414 27.7539 47.4414 27.4023 47.4414C27.0703 47.832 26.875 48.0664 26.875 48.0664C26.875 48.0664 39.2187 53.2227 27.7734 59.4531C27.9883 59.4531 28.2031 59.4531 28.4375 59.4531C39.8437 59.4531 49.082 56.7578 49.082 53.4375C49.082 50.1367 39.8437 47.4414 28.4375 47.4414Z" fill="#182F4D"/>
<path d="M59.3945 31.1719L31.1523 18.3008C29.4336 17.5195 27.4414 17.5195 25.7227 18.3008L5.27344 27.6172C3.47656 31.1914 2.10937 35 1.21094 38.9844L8.28125 42.207V39.2578C8.28125 37.9297 10.4102 36.5234 13.9648 35.4883C21.9336 33.1641 34.9023 33.1641 42.8711 35.4883C46.4258 36.5234 48.5547 37.9297 48.5547 39.2578V42.207L59.375 37.2656C62.0117 36.0938 62.0117 32.3633 59.3945 31.1719Z" fill="#176496"/>
<path d="M25.7227 18.3008L5.27344 27.6172C3.47656 31.1914 2.10938 35 1.21094 38.9844L8.28125 42.207V39.2578C8.28125 37.9297 10.4102 36.5234 13.9648 35.4883C17.5391 34.4531 22.1094 33.8672 26.7969 33.7695C27.6563 33.3984 28.418 33.2422 28.418 33.2422C17.0508 27.207 25.7227 18.3008 25.7227 18.3008Z" fill="#0A456E"/>
<path d="M28.4375 33.2617C17.0312 33.2617 7.79297 35.957 7.79297 39.2773V53.457H7.89062C8.94531 50.4297 17.7344 48.0664 28.418 48.0664C39.1016 48.0664 47.8906 50.4297 48.9453 53.457H49.043V39.2773C49.082 35.957 39.8437 33.2617 28.4375 33.2617Z" fill="#0A456E"/>
<path d="M28.4375 33.2617C17.0313 33.2617 7.79297 35.957 7.79297 39.2773V53.457H7.89063C8.90625 50.5664 16.8945 48.3008 26.8555 48.0859C24.5508 47.207 24.6094 44.8438 24.6094 44.8438C24.6094 44.8438 24.6094 38.2227 24.6094 36.1328C24.6289 34.0234 28.4375 33.2617 28.4375 33.2617Z" fill="#043C62"/>
<path d="M40.7812 62.168C39.2773 62.168 38.0469 60.9375 38.0469 59.4336V51.6992C38.0469 50.1953 39.2773 48.9648 40.7812 48.9648C42.2852 48.9648 43.5156 50.1953 43.5156 51.6992V59.4336C43.5156 60.957 42.2852 62.168 40.7812 62.168Z" fill="#FFDA00"/>
<path d="M40.7812 48.9648C39.2773 48.9648 38.0469 50.1953 38.0469 51.6992V58.5938C38.0469 57.0898 39.2773 55.8594 40.7812 55.8594C42.2852 55.8594 43.5156 57.0898 43.5156 58.5938V51.6992C43.5156 50.1953 42.2852 48.9648 40.7812 48.9648Z" fill="#FFC000"/>
<path d="M40.7812 47.4609C39.6484 47.4609 38.7305 46.543 38.7305 45.4102V21.2305C38.7305 20.0977 39.6484 19.1797 40.7812 19.1797C41.9141 19.1797 42.832 20.0977 42.832 21.2305V45.4102C42.832 46.543 41.9141 47.4609 40.7812 47.4609Z" fill="#FFDA00"/>
<path d="M44.6484 48.7109C44.6484 50.8594 42.9102 52.5781 40.7812 52.5781C38.6328 52.5781 36.9141 50.8398 36.9141 48.7109C36.9141 46.5625 38.6523 44.8438 40.7812 44.8438C42.9102 44.8438 44.6484 46.582 44.6484 48.7109Z" fill="#FFC000"/>
<path d="M43.1641 47.9492C43.1641 48.9258 42.3633 49.7266 41.3867 49.7266C40.4102 49.7266 39.6094 48.9258 39.6094 47.9492C39.6094 46.9727 40.4102 46.1719 41.3867 46.1719C42.3633 46.1719 43.1641 46.9727 43.1641 47.9492Z" fill="#FFDA00"/>
</svg>
