<svg width="96" height="99" viewBox="0 0 96 99" fill="none" xmlns="http://www.w3.org/2000/svg">
<path d="M48 3.29688C21.5742 3.29688 0.148438 24.7227 0.148438 51.1484C0.148438 68.2383 9.11328 83.2578 22.6094 91.7148L53.3906 98.707C77.2773 96.0117 95.8516 75.7578 95.8516 51.1484C95.8516 24.7227 74.4258 3.29688 48 3.29688Z" fill="#0E62A8"/>
<path d="M43.3322 8.41405C43.0782 8.64843 42.3947 9.35155 41.8478 10.3867C40.9689 12.0664 40.8907 13.7656 41.6525 15.3476C43.3907 18.9219 53.0197 35.6797 53.1173 35.8359L53.1368 35.875C53.1564 35.8945 55.3243 38.4531 59.0548 37.3594C59.6408 37.1836 60.3439 37.2031 61.1447 37.3203L67.7658 33.4922C68.879 32.8477 69.2697 31.4023 68.6251 30.2891L64.3868 22.9453C63.9767 22.2227 64.4454 21.3047 65.2853 21.2461C66.2228 21.1875 67.1408 20.9141 68.0001 20.4062C71.1837 18.5703 72.1798 14.4101 70.09 11.3047C68.3322 8.68749 64.8751 7.76952 62.0431 9.13671C60.9689 9.64452 60.129 10.4062 59.5236 11.3242C59.0548 12.0078 58.0392 11.9492 57.6095 11.2461L53.3712 3.90233C52.7267 2.78905 51.2814 2.39843 50.1681 3.04296L43.3322 6.98827V8.41405Z" fill="#FB4444"/>
<path d="M60.3829 50.211C63.0001 48.4531 63.9181 44.9961 62.5509 42.1641C62.0431 41.0899 61.2814 40.25 60.3634 39.6446C59.6798 39.1758 59.7384 38.1602 60.4415 37.7305L61.5548 37.086C60.5782 36.9102 59.6798 36.8711 58.9767 37.086C55.3829 38.1211 53.3517 35.6797 53.3517 35.6797C53.3517 35.6797 43.6837 18.8242 41.9259 15.211C40.1681 11.5977 43.6251 8.5508 43.6251 8.5508L43.7032 6.81252L42.9025 7.28127C42.1798 7.69143 41.2618 7.22268 41.2032 6.38283C41.1446 5.44533 40.8712 4.52736 40.3634 3.66799C38.5275 0.484395 34.3673 -0.511699 31.2618 1.57815C28.6446 3.33596 27.7267 6.79299 29.0939 9.62502C29.6017 10.6992 30.3634 11.5391 31.2814 12.1446C31.965 12.6133 31.9064 13.6485 31.2032 14.0586L23.8595 18.2969C22.7462 18.9414 22.3556 20.3867 23.0001 21.5L27.2384 28.8438C27.6486 29.5664 28.6837 29.6055 29.1525 28.9219C29.7579 28.0235 30.6173 27.2617 31.672 26.7344C34.504 25.3672 37.9611 26.3047 39.7189 28.9024C41.8087 32.0078 40.8126 36.168 37.629 38.0039C36.7696 38.4922 35.8321 38.7656 34.9142 38.8438C34.0743 38.9024 33.6056 39.8203 34.0157 40.543L38.254 47.8867C38.8986 49 40.3439 49.3906 41.4571 48.7461L48.8009 44.5078C49.5236 44.0977 50.4415 44.5664 50.5001 45.4063C50.5587 46.3438 50.8321 47.2617 51.34 48.1211C53.1173 51.2852 57.2775 52.3008 60.3829 50.211Z" fill="#FC3030"/>
<path d="M76.4962 52.3398C72.8829 52.5742 70.2266 51.7539 68.6055 49.8789C65.6954 46.5 67.0235 40.6992 67.2383 39.8789L67.4727 39.7031H39.5626C39.2501 40.0156 38.9376 40.3672 38.6251 40.7188C35.793 44.0977 35.2266 47.75 36.9649 51.2852C38.1172 53.6289 38.1563 57.0859 38.1954 61.0898C38.2344 66.1289 38.293 71.832 40.5782 77.1445C43.2344 83.3164 48.4102 87.6914 56.3985 90.543C56.4571 90.4648 56.4962 90.3672 56.5547 90.2891C56.9063 89.7031 57.6094 89.4492 58.254 89.6641L62.1797 91.0312C63.6446 91.5391 65.1876 91.793 66.7305 91.7344C68.586 91.6758 70.3047 90.7578 71.3594 89.2344C72.4337 87.6914 73.0001 85.8555 73.0001 83.9805V82.3203C73.0001 81.0703 73.5079 79.8594 74.4063 78.9805L75.8516 77.5742C76.3985 77.0469 76.6133 76.2656 76.4376 75.543L76.2618 74.8789C76.2032 74.6445 76.2813 74.4102 76.4571 74.2539L78.4883 72.5937C78.6641 72.4375 78.7813 72.2227 78.7813 71.9883V69.0781C78.7813 68.8633 78.918 68.6875 79.1133 68.6094C80.3438 68.1797 84.6407 66.5586 84.6407 64.8203C84.6407 63.6875 80.9297 58.9609 77.629 54.957C76.9844 54.2148 76.6133 53.2969 76.4962 52.3398Z" fill="#EFAD7D"/>
<path d="M39.9922 39.6836H13.2344C12.707 39.6836 12.2383 40.0352 12.1016 40.543C11.3594 43.2773 10.9688 46.168 10.9688 49.1367C11.0078 58.6094 15.0898 67.1445 21.5742 73.0625C24.0156 75.2891 24.9922 78.707 24.1523 81.9101L22.6094 91.6953C29.9727 96.3047 38.6641 98.9805 48 98.9805C49.8164 98.9805 51.6328 98.8828 53.3906 98.668C53.9375 95.6992 55.0117 92.8477 56.5352 90.25C31.4961 81.3633 41.3594 59.5273 37.2383 51.1484C34.8164 46.2266 37.4141 42.1836 39.9922 39.6836Z" fill="#DD925F"/>
<path d="M76.5351 52.6328C76.3984 51.9102 76.4374 51.1484 76.6327 50.4062L77.0624 48.8242C77.414 47.5352 77.5507 46.207 77.4335 44.8789C77.2968 43.4141 77.0624 41.9687 76.7109 40.582C76.5741 40.0547 76.1054 39.6836 75.5585 39.6836H66.9843C66.9843 39.6836 63.078 53.5117 76.5351 52.6328Z" fill="#FCC292"/>
</svg>
